<?xml version="1.0" standalone="no"?>
<!DOCTYPE svg PUBLIC "-//W3C//DTD SVG 20010904//EN"
 "http://www.w3.org/TR/2001/REC-SVG-20010904/DTD/svg10.dtd">
<svg version="1.0" xmlns="http://www.w3.org/2000/svg"
 width="512.000000pt" height="512.000000pt" viewBox="0 0 512.000000 512.000000"
 preserveAspectRatio="xMidYMid meet">
<metadata>
Created by potrace 1.11, written by Peter Selinger 2001-2013
</metadata>
<g transform="translate(0.000000,512.000000) scale(0.100000,-0.100000)"
fill="#000000" stroke="none">
<path d="M2349 4516 c-2 -2 -47 -7 -99 -11 -140 -10 -294 -38 -550 -100 -8 -2
-67 -22 -130 -43 -583 -201 -1040 -574 -1273 -1038 -82 -163 -145 -356 -151
-463 -9 -151 127 -327 284 -367 l45 -11 3 -167 c2 -150 1 -166 -14 -166 -33 0
-123 -50 -164 -92 -66 -67 -94 -137 -95 -233 0 -71 4 -88 33 -147 40 -81 122
-160 193 -185 l49 -18 1 -205 c0 -113 3 -218 5 -235 10 -64 46 -168 80 -225
66 -112 207 -242 297 -272 18 -6 37 -14 42 -18 13 -11 80 -28 130 -34 50 -7
3051 -8 3085 -1 130 24 220 64 307 134 118 95 201 223 240 372 3 13 8 140 10
282 l5 257 48 49 c66 66 103 148 106 230 3 72 -13 121 -60 191 -36 53 -54 70
-123 112 l-53 33 0 167 0 168 38 1 c63 1 95 9 152 36 138 67 234 218 224 353
-7 88 -60 257 -122 390 -145 310 -417 601 -769 822 -75 47 -355 197 -370 198
-8 1 -41 13 -55 21 -10 5 -24 9 -32 9 -8 0 -21 6 -28 13 -7 6 -22 13 -32 15
-10 2 -59 17 -108 33 -87 28 -190 57 -237 65 -12 3 -51 11 -85 19 -33 7 -79
16 -101 20 -23 3 -50 7 -60 9 -11 2 -49 7 -85 11 -36 4 -78 9 -95 12 -36 5
-481 14 -486 9z"/>
</g>
</svg>
