<svg version="1" xmlns="http://www.w3.org/2000/svg" width="682.667" height="682.667" viewBox="0 0 512 512"><path d="M234.9 60.4c-.2.2-4.7.7-9.9 1.1-14 1-29.4 3.8-55 10-.8.2-6.7 2.2-13 4.3C98.7 95.9 53 133.2 29.7 179.6c-8.2 16.3-14.5 35.6-15.1 46.3-.9 15.1 12.7 32.7 28.4 36.7l4.5 1.1.3 16.7c.2 15 .1 16.6-1.4 16.6-3.3 0-12.3 5-16.4 9.2-6.6 6.7-9.4 13.7-9.5 23.3 0 7.1.4 8.8 3.3 14.7 4 8.1 12.2 16 19.3 18.5l4.9 1.8.1 20.5c0 11.3.3 21.8.5 23.5 1 6.4 4.6 16.8 8 22.5 6.6 11.2 20.7 24.2 29.7 27.2 1.8.6 3.7 1.4 4.2 1.8 1.3 1.1 8 2.8 13 3.4 5 .7 305.1.8 308.5.1 13-2.4 22-6.4 30.7-13.4 11.8-9.5 20.1-22.3 24-37.2.3-1.3.8-14 1-28.2l.5-25.7 4.8-4.9c6.6-6.6 10.3-14.8 10.6-23 .3-7.2-1.3-12.1-6-19.1-3.6-5.3-5.4-7-12.3-11.2l-5.3-3.3V264l3.8-.1c6.3-.1 9.5-.9 15.2-3.6 13.8-6.7 23.4-21.8 22.4-35.3-.7-8.8-6-25.7-12.2-39-14.5-31-41.7-60.1-76.9-82.2-7.5-4.7-35.5-19.7-37-19.8-.8-.1-4.1-1.3-5.5-2.1-1-.5-2.4-.9-3.2-.9-.8 0-2.1-.6-2.8-1.3-.7-.6-2.2-1.3-3.2-1.5-1-.2-5.9-1.7-10.8-3.3-8.7-2.8-19-5.7-23.7-6.5-1.2-.3-5.1-1.1-8.5-1.9-3.3-.7-7.9-1.6-10.1-2-2.3-.3-5-.7-6-.9-1.1-.2-4.9-.7-8.5-1.1-3.6-.4-7.8-.9-9.5-1.2-3.6-.5-48.1-1.4-48.6-.9z"/></svg>